# xmcd
#
# Track frame offsets:
#	150
#	15216
#	30707
#	46343
#	63454
#	83072
#	103267
#	127622
#	148905
#	162800
#	180927
#
# Disc length: 2683 seconds
#
# Revision: 1
# Processed by: cddbd v1.5.2PL0 Copyright (c) Steve Scherf et al.
# Submitted via: audiograbber 1.83.01
#
DISCID=800a790b
DTITLE=Blue Heat feat. Jeanne Carroll - Reminiscing in Blue
DYEAR=2007
DGENRE=Blues
TTITLE0=Centerpiece
TTITLE1=Knock on Wood
TTITLE2=Blues ain't nothing
TTITLE3=10th Avenue Tango
TTITLE4=Get Ready
TTITLE5=Never Make Your Move Too Soon
TTITLE6=Cold Duck
TTITLE7=I Found a New Baby
TTITLE8=I Need Money
TTITLE9=Back at the Chicken Shack
TTITLE10=Wang Dang Doodle
EXTD=
EXTT0=
EXTT1=
EXTT2=
EXTT3=
EXTT4=
EXTT5=
EXTT6=
EXTT7=
EXTT8=
EXTT9=
EXTT10=
PLAYORDER=
